<?xml version="1.0" standalone="no"?>
<!DOCTYPE svg PUBLIC "-//W3C//DTD SVG 20010904//EN"
 "http://www.w3.org/TR/2001/REC-SVG-20010904/DTD/svg10.dtd">
<svg version="1.0" xmlns="http://www.w3.org/2000/svg"
 width="280.000000pt" height="280.000000pt" viewBox="0 0 280.000000 280.000000"
 preserveAspectRatio="xMidYMid meet">
<metadata>
Created by potrace 1.11, written by Peter Selinger 2001-2013
</metadata>
<g transform="translate(0.000000,280.000000) scale(0.100000,-0.100000)"
fill="#000000" stroke="none">
<path d="M0 2135 c0 -366 2 -665 4 -665 3 0 12 23 21 50 14 42 28 59 87 105
56 44 77 55 107 55 56 0 96 -31 131 -102 17 -34 33 -64 34 -65 2 -2 23 6 47
17 53 24 100 25 145 4 42 -20 164 -148 187 -196 40 -84 3 -206 -77 -253 -47
-28 -139 -35 -179 -14 -51 26 -128 126 -143 184 -9 36 -15 37 -69 8 -83 -44
-205 -25 -257 40 -9 12 -20 18 -25 14 -4 -5 -9 -303 -11 -663 l-2 -654 527 2
c291 0 500 4 466 7 -48 5 -69 13 -100 37 -49 40 -77 111 -68 171 7 50 17 58
44 41 11 -7 22 -10 24 -8 12 15 55 100 50 100 -3 0 -23 -14 -45 -32 -32 -25
-38 -27 -30 -11 16 29 73 60 125 68 34 5 56 2 89 -13 44 -19 44 -19 84 1 28
16 59 21 114 22 86 2 119 17 176 84 49 57 100 81 172 81 96 0 173 -61 204
-162 9 -32 8 -47 -10 -99 -11 -33 -18 -67 -16 -74 3 -8 -4 -16 -18 -20 -68
-19 -99 -40 -128 -87 -16 -26 -34 -48 -38 -48 -5 0 -18 -13 -30 -30 l-23 -30
616 0 615 0 0 955 0 955 -37 -41 c-46 -51 -86 -69 -150 -69 -109 1 -213 96
-213 196 0 22 -2 24 -14 14 -11 -9 -13 -18 -5 -37 20 -53 -23 -113 -81 -113
-20 0 -45 6 -55 14 -17 12 -21 11 -33 -13 -8 -14 -14 -43 -13 -64 2 -49 -42
-97 -89 -97 -77 0 -156 45 -148 83 2 8 -10 25 -27 39 -26 23 -31 24 -41 10 -9
-12 -15 -13 -25 -6 -23 18 -103 34 -168 34 -34 0 -61 -2 -61 -5 0 -3 31 -35
68 -72 38 -38 75 -79 82 -92 l13 -24 -29 22 c-16 13 -29 28 -29 34 0 7 -12 13
-27 15 -16 2 -28 7 -28 12 0 4 -7 11 -16 14 -11 4 -14 2 -11 -6 3 -7 13 -30
22 -51 9 -22 11 -36 6 -32 -6 3 -11 12 -11 19 0 6 -16 27 -35 46 -32 31 -51
32 -22 0 6 -7 -2 -4 -20 8 -48 34 -53 25 -8 -14 22 -20 33 -34 25 -31 -8 2
-23 0 -33 -5 -15 -7 -16 -12 -6 -24 9 -11 7 -14 -15 -14 -25 0 -28 -3 -30 -32
-1 -7 -5 -16 -9 -19 -5 -3 2 -23 14 -43 32 -54 17 -55 -22 -1 -24 33 -38 45
-52 41 -10 -2 -26 5 -37 17 -19 19 -26 14 -21 -15 3 -18 -17 -6 -29 17 -8 14
-20 23 -27 21 -7 -3 -13 -2 -13 3 0 13 -74 19 -82 7 -5 -7 -8 -5 -8 5 0 29
-29 31 -36 4 -9 -35 -21 -31 -16 5 4 25 1 30 -17 30 -19 0 -20 -6 -23 -97 -3
-82 -6 -98 -20 -101 -12 -2 -18 5 -21 25 l-3 28 -13 -32 c-7 -18 -17 -33 -22
-33 -4 0 -6 7 -3 15 4 8 2 15 -4 15 -5 0 -12 -9 -15 -21 -9 -34 -57 -22 -81
20 -15 26 -17 36 -7 39 7 2 24 15 39 29 20 18 22 23 9 19 -68 -22 -71 -21 -64
15 9 45 71 170 103 209 49 58 8 30 -46 -32 -30 -34 -47 -59 -37 -55 22 8 22 6
-8 -53 -26 -51 -41 -62 -51 -36 -6 15 22 76 34 76 7 0 9 8 15 63 1 10 11 26
22 35 12 9 27 25 34 34 12 16 11 17 -18 2 -17 -9 -31 -20 -31 -25 0 -5 -10
-13 -23 -18 -12 -5 -46 -23 -76 -40 -41 -24 -56 -29 -62 -20 -11 19 0 32 22
26 12 -3 40 8 70 29 28 19 55 34 60 34 5 0 9 8 9 19 0 10 8 29 19 42 35 46 44
71 30 80 -9 5 -10 11 -3 21 14 18 16 101 4 134 -9 22 -13 24 -25 14 -12 -10
-22 -9 -49 4 -19 9 -58 16 -88 17 l-53 1 45 10 c25 5 75 7 113 5 l67 -4 0 63
c0 36 -4 64 -10 64 -5 0 -10 7 -10 15 0 8 7 15 15 15 10 0 15 -10 15 -27 0
-16 3 -44 6 -64 5 -30 9 -35 28 -32 30 6 53 -21 36 -42 -15 -18 -41 -19 -60
-2 -8 6 -7 3 3 -9 9 -11 25 -43 34 -70 l18 -49 5 40 c5 35 6 37 12 16 6 -20 9
-22 22 -12 8 7 25 33 36 57 24 49 33 55 29 22 -1 -13 3 -34 8 -48 10 -24 11
-23 22 20 18 66 19 69 20 27 1 -22 7 -40 15 -43 8 -3 17 -20 21 -37 4 -18 9
-26 12 -19 7 18 23 14 23 -6 0 -21 42 -48 59 -38 6 4 40 9 75 12 54 4 70 9 97
35 l32 30 -13 54 c-7 31 -10 58 -7 61 3 4 9 -5 13 -20 3 -14 10 -26 15 -26 5
0 9 -7 9 -15 0 -10 10 -15 29 -15 17 0 33 -4 36 -10 10 -16 22 -12 48 16 20
22 31 25 73 22 38 -2 49 -7 48 -20 -1 -11 4 -14 14 -11 12 5 14 1 8 -23 -11
-43 -34 -74 -64 -85 -26 -10 -26 -11 -8 -25 11 -8 16 -14 10 -14 -5 0 9 -11
31 -25 49 -30 42 -32 -20 -5 -58 25 -61 25 -68 -2 -11 -41 10 -50 100 -46 46
1 83 0 83 -3 0 -4 11 -10 25 -13 13 -3 31 -19 39 -34 l15 -27 -6 37 c-7 50 3
85 34 114 36 33 101 33 141 -1 l29 -24 10 22 c5 12 8 38 6 57 -10 81 82 122
141 64 14 -15 26 -34 27 -43 0 -9 8 2 18 24 65 146 259 166 359 36 l32 -43 0
356 0 356 -906 0 c-859 0 -906 -1 -898 -17 4 -10 9 -41 12 -69 5 -62 -19 -115
-72 -161 -153 -135 -388 18 -308 200 l21 47 -325 0 -324 0 0 -665z m1352 518
c8 -10 15 -43 17 -75 2 -54 0 -58 -20 -58 -21 0 -22 14 -3 64 6 15 3 15 -20 5
-49 -23 -79 34 -34 65 29 20 42 20 60 -1z m1198 -143 c19 -12 10 -20 -30 -25
-31 -4 -32 -3 -14 16 19 22 23 22 44 9z m-996 -114 c-52 -58 -104 -97 -104
-78 0 10 152 153 158 148 2 -3 -22 -34 -54 -70z m867 5 c72 -72 8 -182 -87
-151 -107 36 -94 180 16 180 33 0 48 -6 71 -29z m-333 -7 c44 -31 17 -84 -44
-84 -19 0 -34 4 -34 9 0 5 -8 8 -17 7 -14 -1 -18 7 -18 29 0 25 5 32 35 42 46
16 52 16 78 -3z m-510 -112 c-2 -22 -8 -27 -32 -27 -17 0 -33 7 -40 18 -9 15
-7 22 12 37 32 26 65 11 60 -28z m472 -8 c0 -8 -7 -14 -15 -14 -15 0 -21 21
-9 33 10 9 24 -2 24 -19z m73 -30 c-6 -16 -29 -19 -38 -4 -4 6 -1 17 5 26 15
18 42 0 33 -22z m-98 -133 c-11 -10 -126 -34 -132 -27 -3 2 24 11 59 19 80 19
84 19 73 8z m-1114 -138 c-10 -17 -10 -16 -11 3 0 23 13 41 18 25 2 -6 -1 -18
-7 -28z m1009 -203 c0 -5 -4 -10 -9 -10 -6 0 -13 5 -16 10 -3 6 1 10 9 10 9 0
16 -4 16 -10z m-1101 -54 c22 -26 -19 -69 -49 -51 -11 7 -14 48 -3 58 11 12
40 8 52 -7z m1422 -41 c22 -19 45 -35 53 -35 28 0 93 -59 110 -99 49 -123 -24
-236 -153 -236 -136 0 -214 135 -146 253 14 24 22 48 19 53 -9 15 16 78 34 89
28 16 43 12 83 -25z m-365 -46 c4 -8 1 -8 -14 0 -12 6 -24 16 -28 22 -4 8 -1
8 14 0 12 -6 24 -16 28 -22z m-506 -30 c0 -5 -4 -9 -10 -9 -5 0 -10 7 -10 16
0 8 5 12 10 9 6 -3 10 -10 10 -16z m550 6 c-7 -8 -16 -12 -21 -9 -13 8 -1 24
18 24 13 0 13 -3 3 -15z m-510 -35 c0 -5 -2 -10 -4 -10 -3 0 -8 5 -11 10 -3 6
-1 10 4 10 6 0 11 -4 11 -10z m27 -12 c-3 -8 -6 -5 -6 6 -1 11 2 17 5 13 3 -3
4 -12 1 -19z m213 12 c0 -5 -2 -10 -4 -10 -3 0 -8 5 -11 10 -3 6 -1 10 4 10 6
0 11 -4 11 -10z m-870 -53 c0 -32 -29 -58 -51 -46 -25 13 -24 44 2 63 26 18
49 10 49 -17z m910 8 c13 -14 21 -25 18 -25 -2 0 -15 11 -28 25 -13 14 -21 25
-18 25 2 0 15 -11 28 -25z m330 -36 c0 -5 -4 -9 -10 -9 -5 0 -10 7 -10 16 0 8
5 12 10 9 6 -3 10 -10 10 -16z m-1200 -34 c14 -16 7 -45 -11 -45 -6 0 -8 7 -5
16 5 14 4 15 -9 4 -13 -10 -15 -9 -15 7 0 34 19 43 40 18z m320 11 c0 -3 -4
-8 -10 -11 -5 -3 -10 -1 -10 4 0 6 5 11 10 11 6 0 10 -2 10 -4z m450 -21 c13
-14 21 -25 18 -25 -2 0 -15 11 -28 25 -13 14 -21 25 -18 25 2 0 15 -11 28 -25z
m-251 -39 c12 -26 12 -31 -3 -41 -9 -7 -16 -20 -16 -29 0 -9 -4 -16 -10 -16
-5 0 -10 8 -10 18 0 9 -9 23 -20 30 -23 14 -26 42 -8 60 20 20 52 9 67 -22z
m-259 -27 c0 -5 -4 -9 -10 -9 -5 0 -10 7 -10 16 0 8 5 12 10 9 6 -3 10 -10 10
-16z m993 -25 c48 -25 117 -83 138 -118 72 -118 -54 -266 -225 -266 -166 0
-257 202 -149 331 53 63 166 88 236 53z m345 -81 c24 -14 42 -51 42 -82 0 -37
-44 -86 -87 -96 -22 -6 -52 -19 -64 -30 l-24 -20 23 27 24 26 -21 11 c-50 27
-64 117 -23 154 41 37 82 41 130 10z m-115 -325 c10 -13 25 -31 32 -40 9 -11
10 -18 4 -18 -7 0 -8 -11 -4 -30 5 -25 1 -35 -23 -60 -46 -46 -68 -40 -76 18
-13 92 -19 113 -27 105 -4 -4 -9 -39 -10 -76 -2 -75 -14 -85 -48 -41 -23 29
-28 92 -10 125 26 50 128 60 162 17z m-1906 -24 c75 -61 99 -166 58 -249 -23
-45 -76 -85 -114 -85 -26 0 -25 0 8 21 18 11 35 29 38 40 3 10 9 19 13 19 4 0
11 8 14 17 6 16 6 16 -12 0 -10 -9 -26 -17 -35 -17 -9 0 -19 -5 -23 -11 -4 -7
-9 -7 -13 -2 -3 5 -15 15 -26 21 -19 11 -18 11 7 12 25 0 46 29 40 53 -1 5 2
6 8 2 10 -6 14 6 11 35 -4 44 -15 62 -44 80 -34 21 -21 28 16 8 20 -10 21 -10
8 5 -7 10 -22 17 -32 17 -11 0 -19 5 -19 10 0 6 4 10 10 10 5 0 7 7 4 15 -4
10 -20 15 -48 15 -31 0 -37 3 -26 11 8 5 39 8 68 6 39 -3 61 -11 89 -33z
m1959 -194 c62 -31 114 -114 114 -184 0 -55 -49 -137 -103 -173 -143 -96 -317
-7 -317 162 0 160 163 264 306 195z"/>
<path d="M360 719 c0 -5 5 -7 10 -4 6 3 10 8 10 11 0 2 -4 4 -10 4 -5 0 -10
-5 -10 -11z"/>
<path d="M1763 2129 c-13 -5 -23 -13 -23 -19 0 -6 -4 -8 -10 -5 -5 3 -10 1
-10 -5 0 -6 -5 -8 -12 -4 -7 4 -8 3 -4 -4 4 -7 2 -12 -5 -12 -7 0 -10 -3 -7
-6 4 -3 18 2 32 11 14 9 29 14 35 11 5 -3 19 2 31 12 18 14 20 20 9 24 -8 3
-24 2 -36 -3z"/>
<path d="M1650 2038 c0 -4 16 -8 35 -8 19 0 35 2 35 4 0 2 -16 6 -35 8 -19 2
-35 0 -35 -4z"/>
<path d="M1022 1925 c-12 -19 -18 -35 -13 -35 11 0 51 48 51 61 0 19 -16 7
-38 -26z"/>
<path d="M1114 1908 c3 -12 0 -18 -9 -18 -9 0 -15 -10 -15 -25 0 -14 5 -25 10
-25 6 0 10 8 10 18 0 10 4 22 10 28 6 6 5 15 -1 24 -9 13 -10 12 -5 -2z"/>
<path d="M1766 1891 c8 -9 67 -16 89 -11 13 3 -44 17 -74 19 -16 1 -21 -3 -15
-8z"/>
<path d="M1067 1820 c-30 -81 -35 -124 -6 -61 11 25 18 52 16 60 -3 14 -5 14
-10 1z"/>
<path d="M1091 1620 c-24 -53 -28 -84 -7 -55 11 16 17 17 29 7 11 -10 17 -9
28 4 8 10 9 18 2 22 -5 4 -15 21 -20 37 l-11 30 -21 -45z"/>
<path d="M1138 3 c12 -2 32 -2 45 0 12 2 2 4 -23 4 -25 0 -35 -2 -22 -4z"/>
</g>
</svg>
